<?xml version="1.0" encoding="utf-8"?>
<svg viewBox="2.907 10.659 392.296 76.067" width="392.296" height="76.067" xmlns="http://www.w3.org/2000/svg" xmlns:bx="https://boxy-svg.com">
  <defs>
    <linearGradient id="gradient-2" gradientUnits="userSpaceOnUse" x1="335.756" y1="26.163" x2="335.756" y2="104.167" gradientTransform="matrix(-0.0892, 0.968808, -4.627261, -0.652647, 527.754867, -235.655457)">
      <stop offset="0" style="stop-color: rgb(255, 255, 255);"/>
      <stop offset="1" style="stop-color: rgb(0, 146, 202);"/>
    </linearGradient>
  </defs>
  <rect x="2.907" y="10.659" width="392.296" height="76.067" style="fill: url(#gradient-2); paint-order: fill;"/>
  <g transform="matrix(0.350589, 0, 0, -0.432432, 116.728806, 82.280434)" style="">
    <g transform="">
      <path d="M 3.75004 8.166675 L 6.250014 8.166675 L 6.250014 5.83335 L 3.75004 5.83335 L 3.75004 8.166675 Z M 3.75004 12.83332 L 6.250014 12.83332 L 6.250014 10.5 L 3.75004 10.5 L 3.75004 12.83332 Z M 3.75004 17.49997 L 6.250014 17.49997 L 6.250014 15.16665 L 3.75004 15.16665 L 3.75004 17.49997 Z M 8.750067 8.166675 L 11.25004 8.166675 L 11.25004 5.83335 L 8.750067 5.83335 L 8.750067 8.166675 Z M 8.750067 12.83332 L 11.25004 12.83332 L 11.25004 10.5 L 8.750067 10.5 L 8.750067 12.83332 Z M 8.750067 17.49997 L 11.25004 17.49997 L 11.25004 15.16665 L 8.750067 15.16665 L 8.750067 17.49997 Z M 0 0 L 6.250014 0 L 6.250014 3.500026 L 8.750067 3.500026 L 8.750067 0 L 15.00008 0 L 15.00008 21 L 0 21 L 0 0 Z" style="fill: rgb(0, 0, 0); fill-rule: evenodd; fill-opacity: 1;"/>
      <path d="M 20.75004 8.49996 L 23.25001 8.49996 L 23.25001 6.071388 L 20.75004 6.071388 L 20.75004 8.49996 Z M 20.75004 13.3571 L 23.25001 13.3571 L 23.25001 10.92853 L 20.75004 10.92853 L 20.75004 13.3571 Z M 25.75007 8.49996 L 28.25004 8.49996 L 28.25004 6.071388 L 25.75007 6.071388 L 25.75007 8.49996 Z M 25.75007 13.3571 L 28.25004 13.3571 L 28.25004 10.92853 L 25.75007 10.92853 L 25.75007 13.3571 Z M 17 -0.0000802213 L 23.25001 -0.0000802213 L 23.25001 3.642817 L 25.75007 3.642817 L 25.75007 -0.0000802213 L 32.00008 -0.0000802213 L 32.00008 17 L 17 17 L 17 -0.0000802213 Z" style="fill: rgb(0, 0, 0); fill-rule: evenodd; fill-opacity: 1;"/>
      <path d="M 45.25004 29.39999 L 42.75007 29.39999 L 42.75007 31.79999 L 45.25004 31.79999 L 45.25004 29.39999 Z M 45.25004 25.19998 L 42.75007 25.19998 L 42.75007 27.59998 L 45.25004 27.59998 L 45.25004 25.19998 Z M 45.25004 20.39999 L 42.75007 20.39999 L 42.75007 22.79999 L 45.25004 22.79999 L 45.25004 20.39999 Z M 45.25004 15.59993 L 42.75007 15.59993 L 42.75007 18 L 45.25004 18 L 45.25004 15.59993 Z M 45.25004 10.79994 L 42.75007 10.79994 L 42.75007 13.19993 L 45.25004 13.19993 L 45.25004 10.79994 Z M 45.25004 5.999945 L 42.75007 5.999945 L 42.75007 8.399941 L 45.25004 8.399941 L 45.25004 5.999945 Z M 40.25001 29.39999 L 37.75004 29.39999 L 37.75004 31.79999 L 40.25001 31.79999 L 40.25001 29.39999 Z M 40.25001 25.19998 L 37.75004 25.19998 L 37.75004 27.59998 L 40.25001 27.59998 L 40.25001 25.19998 Z M 40.25001 20.39999 L 37.75004 20.39999 L 37.75004 22.79999 L 40.25001 22.79999 L 40.25001 20.39999 Z M 40.25001 15.59993 L 37.75004 15.59993 L 37.75004 18 L 40.25001 18 L 40.25001 15.59993 Z M 40.25001 10.79994 L 37.75004 10.79994 L 37.75004 13.19993 L 40.25001 13.19993 L 40.25001 10.79994 Z M 40.25001 5.999945 L 37.75004 5.999945 L 37.75004 8.399941 L 40.25001 8.399941 L 40.25001 5.999945 Z M 34 36 L 34 -0.0000792714 L 40.25001 -0.0000792714 L 40.25001 3.599953 L 42.75007 3.599953 L 42.75007 -0.0000792714 L 49.00008 -0.0000792714 L 49.00008 34.19998 L 34 36 Z" style="fill: rgb(0, 0, 0); fill-rule: evenodd; fill-opacity: 1;"/>
      <path d="M 17.16673 28.59998 L 19.50004 28.59998 L 19.50004 26.19998 L 17.16673 26.19998 L 17.16673 28.59998 Z M 17.16673 33.39997 L 19.50004 33.39997 L 19.50004 30.99997 L 17.16673 30.99997 L 17.16673 33.39997 Z M 14.83335 30.99997 L 12.50004 30.99997 L 12.50004 33.39997 L 14.83335 33.39997 L 14.83335 30.99997 Z M 14.83335 26.19998 L 12.50004 26.19998 L 12.50004 28.59998 L 14.83335 28.59998 L 14.83335 26.19998 Z M 17.16673 19 L 23.00008 19 L 23.00008 37 L 9 37 L 9 23.79999 L 17.16673 23.79999 L 17.16673 19 Z" style="fill: rgb(0, 0, 0); fill-rule: evenodd; fill-opacity: 1;"/>
    </g>
  </g>
  <path d="M 284.791 73.214 L 283.362 68.917 C 283.165 68.326 282.613 67.928 281.992 67.928 L 279.687 67.928 L 279.184 66.422 C 279.056 66.042 278.701 65.784 278.299 65.784 L 277.327 65.784 C 276.925 65.784 276.57 66.04 276.442 66.422 L 275.939 67.928 L 273.634 67.928 C 273.013 67.928 272.461 68.326 272.264 68.917 L 270.835 73.214 C 270.243 73.395 269.813 73.946 269.813 74.597 L 269.813 78.142 C 269.813 78.939 270.459 79.586 271.255 79.586 L 271.255 81.358 C 271.255 81.587 271.44 81.771 271.667 81.771 L 273.565 81.771 C 273.792 81.771 273.976 81.587 273.976 81.358 L 273.976 79.586 L 281.65 79.586 L 281.65 81.358 C 281.65 81.587 281.834 81.771 282.061 81.771 L 283.959 81.771 C 284.186 81.771 284.371 81.587 284.371 81.358 L 284.371 79.586 C 285.167 79.586 285.813 78.939 285.813 78.142 L 285.813 74.597 C 285.813 73.946 285.383 73.395 284.791 73.214 Z M 276.661 66.933 L 277.429 66.933 L 277.429 66.165 L 278.197 66.165 L 278.197 66.933 L 278.965 66.933 L 278.965 67.699 L 278.197 67.699 L 278.197 66.933 L 277.429 66.933 L 277.429 67.701 L 276.661 67.701 L 276.661 66.933 Z M 273.783 69.67 L 281.843 69.67 L 282.706 72.555 L 272.882 72.555 L 273.783 69.67 Z M 273.037 77.726 C 272.279 77.726 271.664 77.112 271.664 76.354 C 271.664 75.595 272.279 74.981 273.037 74.981 C 273.795 74.981 274.41 75.595 274.41 76.354 C 274.41 77.112 273.795 77.726 273.037 77.726 Z M 282.589 77.726 C 281.831 77.726 281.216 77.112 281.216 76.354 C 281.216 75.595 281.831 74.981 282.589 74.981 C 283.347 74.981 283.962 75.595 283.962 76.354 C 283.962 77.112 283.347 77.726 282.589 77.726 Z"/>
  <g transform="matrix(0.046397, 0, 0, 0.046397, 209.786209, 67.525536)">
    <path d="M335.091,9.768c-13.015-13.015-34.115-13.014-47.13,0l-70.51,70.509L103.332,41.452c-1.577-0.537-3.293-0.5-4.846,0.104 l-52.2,20.283c-1.066,0.328-2.07,0.916-2.915,1.759c-2.748,2.748-2.765,7.191-0.054,9.961c0.021,0.022,0.044,0.044,0.066,0.066 c0.33,0.33,0.695,0.63,1.094,0.895l107.464,71.266L79.17,218.558l-45.602-15.514c-0.853-0.29-1.781-0.271-2.622,0.056 L2.785,214.042c-0.752,0.342-1.184,0.598-1.663,1.078c-1.493,1.492-1.497,3.812-0.01,5.309c0.007,0.008,0.015,0.016,0.022,0.021 c0.178,0.18,0.376,0.342,0.592,0.483l54.014,35.821c0.231,8.211,3.471,16.354,9.739,22.622c6.267,6.267,14.41,9.507,22.621,9.737 l35.821,54.015c0.791,1.19,2.181,1.845,3.604,1.691c1.423-0.153,2.642-1.088,3.16-2.422l11.07-28.489 c0.327-0.84,0.346-1.77,0.056-2.623l-15.514-45.602l72.771-72.771l71.268,107.464c1.463,2.204,4.031,3.411,6.662,3.127 c2.63-0.284,4.883-2.011,5.841-4.476l20.461-52.66c0.603-1.553,0.64-3.269,0.103-4.846l-38.824-114.12l70.509-70.509 C348.104,43.884,348.104,22.783,335.091,9.768z"/>
  </g>
  <g transform="matrix(0.028998, 0, 0, 0.028998, 186.286621, 44.001305)"/>
  <g transform="matrix(0.028998, 0, 0, 0.028998, 186.286621, 44.001305)"/>
  <g transform="matrix(0.028998, 0, 0, 0.028998, 186.286621, 44.001305)"/>
  <g transform="matrix(0.028998, 0, 0, 0.028998, 186.286621, 44.001305)"/>
  <g transform="matrix(0.028998, 0, 0, 0.028998, 186.286621, 44.001305)"/>
  <g transform="matrix(0.028998, 0, 0, 0.028998, 186.286621, 44.001305)"/>
  <g transform="matrix(0.028998, 0, 0, 0.028998, 186.286621, 44.001305)"/>
  <g transform="matrix(0.028998, 0, 0, 0.028998, 186.286621, 44.001305)"/>
  <g transform="matrix(0.028998, 0, 0, 0.028998, 186.286621, 44.001305)"/>
  <g transform="matrix(0.028998, 0, 0, 0.028998, 186.286621, 44.001305)"/>
  <g transform="matrix(0.028998, 0, 0, 0.028998, 186.286621, 44.001305)"/>
  <g transform="matrix(0.028998, 0, 0, 0.028998, 186.286621, 44.001305)"/>
  <g transform="matrix(0.028998, 0, 0, 0.028998, 186.286621, 44.001305)"/>
  <g transform="matrix(0.028998, 0, 0, 0.028998, 186.286621, 44.001305)"/>
  <g transform="matrix(0.028998, 0, 0, 0.028998, 186.286621, 44.001305)"/>
  <g transform="matrix(0.039873, 0, 0, 0.039873, 181.352936, 67.723305)" bx:origin="2.863 2.771">
    <path d="M374.878,79.565h-15.102V52.723C359.777,23.605,336.172,0,307.054,0H94.225C65.107,0,41.502,23.605,41.502,52.723v26.842 H26.401c-6.063,0-10.978,4.915-10.978,10.979v60.812c0,6.063,4.915,10.978,10.978,10.978h15.102v131.081 c-5.874,5.265-9.572,12.908-9.572,21.417v20.316c0,15.883,12.875,28.758,28.758,28.758h3.558v28.914 c0,4.672,3.79,8.459,8.462,8.459h38.908c4.672,0,8.458-3.787,8.458-8.459v-28.914h161.13v28.914c0,4.672,3.786,8.459,8.459,8.459 h38.907c4.672,0,8.461-3.787,8.461-8.459v-28.914h3.559c15.882,0,28.758-12.875,28.758-28.758v-20.316 c0-8.508-3.698-16.152-9.572-21.417V162.333h15.102c6.062,0,10.978-4.915,10.978-10.978V90.543 C385.856,84.48,380.942,79.565,374.878,79.565z M327.175,83.855v129.731H215.019V83.855H327.175z M144.722,27.49h111.836 c7.765,0,14.06,6.294,14.06,14.06c0,7.764-6.294,14.059-14.06,14.059H144.722c-7.765,0-14.06-6.295-14.06-14.059 C130.662,33.784,136.957,27.49,144.722,27.49z M74.105,83.855h112.156v129.731H74.105V83.855z M124.303,271.463 c0,7.643-6.216,13.858-13.86,13.858H87.572c-7.631,0-13.846-6.216-13.846-13.858v-15.42c0-7.645,6.215-13.859,13.846-13.859h22.871 c7.644,0,13.86,6.215,13.86,13.859V271.463z M276.978,271.463v-15.42c0-7.645,6.215-13.859,13.859-13.859h22.871 c7.631,0,13.846,6.215,13.846,13.859v15.42c0,7.643-6.215,13.858-13.846,13.858h-22.871 C283.194,285.322,276.978,279.105,276.978,271.463z"/>
  </g>
  <g transform="matrix(0.038875, 0, 0, 0.038875, 118.67778, -24.179476)" bx:origin="0 0"/>
  <g transform="matrix(0.038875, 0, 0, 0.038875, 118.67778, -24.179476)" bx:origin="0 0"/>
  <g transform="matrix(0.038875, 0, 0, 0.038875, 118.67778, -24.179476)" bx:origin="0 0"/>
  <g transform="matrix(0.038875, 0, 0, 0.038875, 118.67778, -24.179476)" bx:origin="0 0"/>
  <g transform="matrix(0.038875, 0, 0, 0.038875, 118.67778, -24.179476)" bx:origin="0 0"/>
  <g transform="matrix(0.038875, 0, 0, 0.038875, 118.67778, -24.179476)" bx:origin="0 0"/>
  <g transform="matrix(0.038875, 0, 0, 0.038875, 118.67778, -24.179476)" bx:origin="0 0"/>
  <g transform="matrix(0.038875, 0, 0, 0.038875, 118.67778, -24.179476)" bx:origin="0 0"/>
  <g transform="matrix(0.038875, 0, 0, 0.038875, 118.67778, -24.179476)" bx:origin="0 0"/>
  <g transform="matrix(0.038875, 0, 0, 0.038875, 118.67778, -24.179476)" bx:origin="0 0"/>
  <g transform="matrix(0.038875, 0, 0, 0.038875, 118.67778, -24.179476)" bx:origin="0 0"/>
  <g transform="matrix(0.038875, 0, 0, 0.038875, 118.67778, -24.179476)" bx:origin="0 0"/>
  <g transform="matrix(0.038875, 0, 0, 0.038875, 118.67778, -24.179476)" bx:origin="0 0"/>
  <g transform="matrix(0.038875, 0, 0, 0.038875, 118.67778, -24.179476)" bx:origin="0 0"/>
  <g transform="matrix(0.038875, 0, 0, 0.038875, 118.67778, -24.179476)" bx:origin="0 0"/>
  <g transform="matrix(1, 0, 0, 1, -160.366703, -134.55453)"/>
  <g transform="matrix(1, 0, 0, 1, -160.366703, -134.55453)"/>
  <g transform="matrix(1, 0, 0, 1, -160.366703, -134.55453)"/>
  <g transform="matrix(1, 0, 0, 1, -160.366703, -134.55453)"/>
  <g transform="matrix(1, 0, 0, 1, -160.366703, -134.55453)"/>
  <g transform="matrix(1, 0, 0, 1, -160.366703, -134.55453)"/>
  <g transform="matrix(1, 0, 0, 1, -160.366703, -134.55453)"/>
  <g transform="matrix(1, 0, 0, 1, -160.366703, -134.55453)"/>
  <g transform="matrix(1, 0, 0, 1, -160.366703, -134.55453)"/>
  <g transform="matrix(1, 0, 0, 1, -160.366703, -134.55453)"/>
  <g transform="matrix(1, 0, 0, 1, -160.366703, -134.55453)"/>
  <g transform="matrix(1, 0, 0, 1, -160.366703, -134.55453)"/>
  <g transform="matrix(1, 0, 0, 1, -160.366703, -134.55453)"/>
  <g transform="matrix(1, 0, 0, 1, -160.366703, -134.55453)"/>
  <g transform="matrix(1, 0, 0, 1, -160.366703, -134.55453)"/>
  <g transform="matrix(0.050868, 0, 0, 0.050868, 146.955673, 64.315948)">
    <path d="M422.438,151.93H390.77c-2.412,0-4.73,0.932-6.471,2.6l-6.76,6.476c-11.395-26.366-27.742-52.439-49.822-79.432 c-11.936-14.585-29.586-22.949-48.43-22.949H152.501c-18.846,0-36.497,8.365-48.426,22.95 c-22.777,27.842-38.799,53.287-49.924,79.338l-6.66-6.383c-1.741-1.668-4.06-2.6-6.472-2.6H9.353c-5.166,0-9.353,4.187-9.353,9.353 v21.651c0,4.937,3.838,9.022,8.765,9.334l32.549,2.05c-4.918,14.371-8.758,35.786-8.758,65.987 c0,26.205,5.234,43.428,14.343,54.578v50.449c0,4.326,3.507,7.832,7.833,7.832h36.029c4.328,0,7.836-3.506,7.836-7.832v-31.328 h234.596v31.328c0,4.326,3.508,7.832,7.834,7.832h36.029c4.326,0,7.834-3.506,7.834-7.832v-50.449 c9.107-11.15,14.344-28.373,14.344-54.578c0-30.201-3.84-51.616-8.758-65.987l32.549-2.05c4.926-0.312,8.764-4.397,8.764-9.334 v-21.651C431.789,156.117,427.604,151.93,422.438,151.93z M130.806,103.442c5.346-6.534,13.254-10.283,21.695-10.283h126.786 c8.441,0,16.352,3.749,21.697,10.283c15.447,18.883,27.646,36.954,37.074,54.955l-244.543,0.046 C102.737,140.842,115.005,122.756,130.806,103.442z M104.157,295.693c-17.933,0-32.469-5.857-32.469-20.066 c0-14.208,5.274-25.729,23.206-25.729s41.73,11.521,41.73,25.729S122.087,295.693,104.157,295.693z M249.93,292.732h-68.069 c-10.262,0-18.61-8.348-18.61-18.609c0-2.878,2.334-5.212,5.214-5.212h94.863c2.879,0,5.211,2.334,5.211,5.212 C268.539,284.385,260.191,292.732,249.93,292.732z M327.633,295.693c-17.932,0-32.469-5.857-32.469-20.066 c0-14.208,23.801-25.729,41.73-25.729c17.932,0,23.207,11.521,23.207,25.729S345.566,295.693,327.633,295.693z"/>
  </g>
  <g transform="matrix(0.037055, 0, 0, 0.037055, 86.014801, -104.658218)"/>
  <g transform="matrix(0.037055, 0, 0, 0.037055, 86.014801, -104.658218)"/>
  <g transform="matrix(0.037055, 0, 0, 0.037055, 86.014801, -104.658218)"/>
  <g transform="matrix(0.037055, 0, 0, 0.037055, 86.014801, -104.658218)"/>
  <g transform="matrix(0.037055, 0, 0, 0.037055, 86.014801, -104.658218)"/>
  <g transform="matrix(0.037055, 0, 0, 0.037055, 86.014801, -104.658218)"/>
  <g transform="matrix(0.037055, 0, 0, 0.037055, 86.014801, -104.658218)"/>
  <g transform="matrix(0.037055, 0, 0, 0.037055, 86.014801, -104.658218)"/>
  <g transform="matrix(0.037055, 0, 0, 0.037055, 86.014801, -104.658218)"/>
  <g transform="matrix(0.037055, 0, 0, 0.037055, 86.014801, -104.658218)"/>
  <g transform="matrix(0.037055, 0, 0, 0.037055, 86.014801, -104.658218)"/>
  <g transform="matrix(0.037055, 0, 0, 0.037055, 86.014801, -104.658218)"/>
  <g transform="matrix(0.037055, 0, 0, 0.037055, 86.014801, -104.658218)"/>
  <g transform="matrix(0.037055, 0, 0, 0.037055, 86.014801, -104.658218)"/>
  <g transform="matrix(0.037055, 0, 0, 0.037055, 86.014801, -104.658218)"/>
  <g transform="matrix(0.057918, 0, 0, 0.057918, 330.217316, 59.810604)">
    <path d="M368.889,194.325c-3.818,0-7.572,0.277-11.262,0.765l-30.459-95.577c-1.998-6.271-7.896-10.499-14.43-10.445 c-19.613,0.18-41.653,0.255-45.209,0.078c-7.93-0.821-15.158,4.726-16.361,12.678c-1.239,8.191,4.396,15.836,12.587,17.075 c1.228,0.185,3.414,0.516,38.188,0.26l6.344,19.906c-0.123,0.171-0.256,0.33-0.373,0.507c-0.188,0.286-19.172,28.929-45.11,57.042 c-17.069,18.5-33.267,32.541-47.779,41.597l-48.116-103.865h1.564c8.177,0,14.806-6.629,14.806-14.806 c0-8.178-6.629-14.806-14.806-14.806h-48.355c-8.177,0-14.806,6.628-14.806,14.806c0,8.177,6.629,14.806,14.806,14.806h3.615 l-25.051,61c-4.299-0.668-8.701-1.021-13.186-1.021C38.353,194.326,0,232.68,0,279.822c0,47.145,38.354,85.497,85.496,85.497 c35.231,0,65.539-21.428,78.607-51.933l61.407,5.439c19.521,1.089,35.676-15.414,36.678-34.805l21.852-14.537 c-0.41,3.393-0.645,6.836-0.645,10.337c0,47.145,38.352,85.497,85.494,85.497s85.496-38.354,85.496-85.497 C454.385,232.678,416.031,194.325,368.889,194.325z M131.688,310.513c-9.952,14.938-26.935,24.805-46.192,24.805 C54.895,335.318,30,310.422,30,279.821c0-30.601,24.896-55.496,55.496-55.496c0.427,0,0.847,0.022,1.272,0.032l-14.279,34.77 c-8.243,4.199-13.832,12.316-13.832,21.646c0,11.083,7.885,20.46,18.744,23.585c3.43,1.121,7.595,1.966,12.645,2.467 M106.23,255.938l9.332-22.726c7.814,5.059,14.271,12.028,18.727,20.239L106.23,255.938z M165.849,250.657 c-7.064-19.398-20.956-35.539-38.766-45.498l18.593-45.277l41.189,88.913L165.849,250.657z M218.825,303.15 c-11.626,0-21.053-9.426-21.053-21.052c0-11.627,9.427-21.052,21.053-21.052c11.626,0,21.052,9.425,21.052,21.052 C239.877,293.724,230.451,303.15,218.825,303.15z M250.852,255.53c-1.201-1.146-2.479-2.211-3.826-3.187 c12.217-9.489,24.929-21.382,38.1-35.686c14.107-15.316,26.096-30.509,34.551-41.858l9.189,28.834L250.852,255.53z M368.889,335.318c-30.602,0-55.496-24.896-55.496-55.497c0-19.338,9.947-36.388,24.988-46.325l16.215,50.881 c2.033,6.379,7.934,10.448,14.289,10.448c1.508,0,3.043-0.229,4.559-0.712c7.893-2.516,12.252-10.952,9.736-18.847l-16.221-50.893 c0.643-0.022,1.281-0.049,1.93-0.049c30.6,0,55.496,24.896,55.496,55.496C424.385,310.422,399.488,335.318,368.889,335.318z"/>
  </g>
  <g transform="matrix(0.035212, 0, 0, 0.035212, 322.215912, -31.997862)"/>
  <g transform="matrix(0.035212, 0, 0, 0.035212, 322.215912, -31.997862)"/>
  <g transform="matrix(0.035212, 0, 0, 0.035212, 322.215912, -31.997862)"/>
  <g transform="matrix(0.035212, 0, 0, 0.035212, 322.215912, -31.997862)"/>
  <g transform="matrix(0.035212, 0, 0, 0.035212, 322.215912, -31.997862)"/>
  <g transform="matrix(0.035212, 0, 0, 0.035212, 322.215912, -31.997862)"/>
  <g transform="matrix(0.035212, 0, 0, 0.035212, 322.215912, -31.997862)"/>
  <g transform="matrix(0.035212, 0, 0, 0.035212, 322.215912, -31.997862)"/>
  <g transform="matrix(0.035212, 0, 0, 0.035212, 322.215912, -31.997862)"/>
  <g transform="matrix(0.035212, 0, 0, 0.035212, 322.215912, -31.997862)"/>
  <g transform="matrix(0.035212, 0, 0, 0.035212, 322.215912, -31.997862)"/>
  <g transform="matrix(0.035212, 0, 0, 0.035212, 322.215912, -31.997862)"/>
  <g transform="matrix(0.035212, 0, 0, 0.035212, 322.215912, -31.997862)"/>
  <g transform="matrix(0.035212, 0, 0, 0.035212, 322.215912, -31.997862)"/>
  <g transform="matrix(0.035212, 0, 0, 0.035212, 322.215912, -31.997862)"/>
  <g transform="matrix(0.039013, 0, 0, 0.039013, 57.145645, -122.039749)"/>
  <g transform="matrix(0.039013, 0, 0, 0.039013, 57.145645, -122.039749)"/>
  <g transform="matrix(0.039013, 0, 0, 0.039013, 57.145645, -122.039749)"/>
  <g transform="matrix(0.039013, 0, 0, 0.039013, 57.145645, -122.039749)"/>
  <g transform="matrix(0.039013, 0, 0, 0.039013, 57.145645, -122.039749)"/>
  <g transform="matrix(0.039013, 0, 0, 0.039013, 57.145645, -122.039749)"/>
  <g transform="matrix(0.039013, 0, 0, 0.039013, 57.145645, -122.039749)"/>
  <g transform="matrix(0.039013, 0, 0, 0.039013, 57.145645, -122.039749)"/>
  <g transform="matrix(0.039013, 0, 0, 0.039013, 57.145645, -122.039749)"/>
  <g transform="matrix(0.039013, 0, 0, 0.039013, 57.145645, -122.039749)"/>
  <g transform="matrix(0.039013, 0, 0, 0.039013, 57.145645, -122.039749)"/>
  <g transform="matrix(0.039013, 0, 0, 0.039013, 57.145645, -122.039749)"/>
  <g transform="matrix(0.039013, 0, 0, 0.039013, 57.145645, -122.039749)"/>
  <g transform="matrix(0.039013, 0, 0, 0.039013, 57.145645, -122.039749)"/>
  <g transform="matrix(0.039013, 0, 0, 0.039013, 57.145645, -122.039749)"/>
  <g transform="matrix(0.035016, 0, 0, 0.035016, 238.834213, 66.009224)">
    <ellipse cx="61.404" cy="108.431" rx="27.359" ry="27.359" transform="matrix(.998 -.071 .071 .998 -7.532 4.626)"/>
    <ellipse cx="182.832" cy="106.313" rx="29.51" ry="29.51" transform="matrix(.987 -.16 .16 .987 -14.669 30.659)"/>
    <path d="m356.749 122.537h155.329v-47.555h-152.925c-28.931 0-52.385 23.453-52.385 52.385v179.263c0 28.931 23.453 52.385 52.385 52.385h49.09v-15.516c0-5.942 4.817-10.759 10.759-10.759h63.104c5.942 0 10.759 4.817 10.759 10.759v15.516h19.214v-121.993h-155.33c-9.122 0-16.517-7.395-16.517-16.517v-81.45c0-9.123 7.395-16.518 16.517-16.518zm7.882 159.167c13.475 0 24.399 10.924 24.399 24.399s-10.924 24.398-24.399 24.398-24.398-10.924-24.398-24.398c-.001-13.475 10.923-24.399 24.398-24.399z"/>
    <path d="m407.455 55.036h86.197c7.584 0 13.732-6.148 13.732-13.732s-6.148-13.732-13.732-13.732h-86.197c-7.584 0-13.732 6.148-13.732 13.732s6.148 13.732 13.732 13.732z"/>
    <path d="m281.098 409.362h-8.752-4.6-25.389-4.6-34.518c4.739-2.193 9.235-6.597 9.249-12 .158-60.428 0-158.432 0-158.432l22.369 13.855v23.997c-5.37 1.305-9.363 6.132-9.363 11.904v96.413c0 5.959 4.251 10.921 9.885 12.029-.716 1.209-1.134 2.615-1.134 4.122 0 4.48 3.632 8.113 8.113 8.113s8.112-3.632 8.112-8.113c0-1.409-.36-2.733-.992-3.887h11.148c-.632 1.155-.992 2.479-.992 3.887 0 4.48 3.632 8.113 8.113 8.113s8.113-3.632 8.113-8.113c0-1.507-.418-2.913-1.134-4.122 5.634-1.108 9.885-6.07 9.885-12.029v-96.413c0-6.773-5.491-12.263-12.264-12.263h-22.489c0-2.898 0-20.242 0-22.534 1.926-1.075 3.619-2.63 4.869-4.633 3.951-6.331 2.021-14.667-4.311-18.617l-37.763-23.564v-43.538c0-10.245-8.305-18.551-18.55-18.551h-33.97c-10.245 0-18.551 8.305-18.551 18.551v2.469l8.284-4.432-28.051 24.919c-1.718 1.526-3.019 3.466-3.778 5.635l-16.863 48.132c-2.467 7.043 1.242 14.753 8.285 17.221 7.005 2.455 14.74-1.205 17.221-8.285l15.705-44.825 25.431-22.591-16.05 22.995-9.71 29.065c.301 172.701-.294 161.548 0 163.523.795 5.347 4.256 9.808 8.994 12h-62.231c7.085-1.983 11.861-8.64 11.551-15.915l-2.847-66.821c-.049-1.143-.221-2.277-.514-3.382l-6.218-23.472h10.708c4.274 0 7.48-4.229 6.65-8.765l-4.837-26.436s-36.905-35.318-40.505-38.868c-1.541-1.799-4.037-3.092-4.641-6.675l-6.619-39.036 15.819 34.862c.622 1.371 1.489 2.617 2.558 3.678l21.944 21.774 8.908-26.092-11.771-11.68-14.878-32.788 15.26 18.718-5.617-30.699c-1.478-8.078-8.028-13.917-15.641-13.917-9.804 0-16.7 0-27.581 0-7.629 0-14.16 5.823-15.641 13.917l-24.381 133.241c-.836 4.567 2.42 8.765 6.65 8.765h13.135v30.416l-14.271 60.285c-1.91 8.069 2.82 16.566 11.165 18.889h-17.205v75.145h275.665v-51.223h5.433c6.606 0 11.961-5.355 11.961-11.961s-5.355-11.961-11.961-11.961zm-255.35 0c5.352-1.513 9.751-5.795 11.123-11.591l.097-.409 14.6-61.676c.283-1.196.426-2.42.426-3.649v-32.265h6.024l7.927 29.923 2.773 65.102c.286 6.715 4.877 12.691 11.531 14.566h-54.501zm138.546 0c4.74-2.194 8.197-6.659 8.991-12 .329-2.212-.187-129.302-.269-130.161h7.783c.092 136.019-.168 127.676.202 130.161.795 5.344 4.254 9.807 8.993 12z"/>
    <path d="m395.7 377.939h-40.73l-51.887 106.569h40.73l8.041-16.515h160.225v-22.888h-149.081l11.589-23.802h137.492v-22.888h-126.348z"/>
  </g>
  <g transform="matrix(0.035758, 0, 0, 0.035758, 298.861176, 63.683361)">
    <path d="m301.213 58.168c0-14.278-11.616-25.894-25.894-25.894h-38.639c-14.278 0-25.894 11.616-25.894 25.894v38.713h90.427z"/>
    <path d="m259.792 194.274 150.095 39.218v-96.789c0-5.416-4.406-9.822-9.822-9.822h-288.129c-5.416 0-9.822 4.406-9.822 9.822v96.789l150.095-39.218c2.485-.649 5.097-.649 7.583 0z"/>
    <path d="m497 449.725c-16.555 0-24.023-3.719-33.479-8.428-4.439-2.21-9.12-4.541-14.706-6.526-7.755-2.757-17.259-4.848-30.282-5.031l54.92-138.253c1.216-3.283.244-6.016-.449-7.359-.698-1.354-2.381-3.759-5.814-4.656l-211.19-55.181-211.189 55.181c-3.434.897-5.117 3.302-5.814 4.656-.693 1.344-1.666 4.08-.447 7.364l54.797 138.25c-13.018.196-22.512 2.3-30.262 5.067-5.539 1.977-10.19 4.292-14.601 6.489-9.457 4.708-16.926 8.428-33.483 8.428-8.284 0-15 6.716-15 15s6.716 15 15 15c23.612 0 35.96-6.148 46.854-11.572 4.245-2.113 8.094-4.023 12.539-5.491 5.459-1.803 11.818-2.936 20.944-2.936 2.083 0 4.021.059 5.839.172 12.628.78 19.377 4.14 27.644 8.256 10.894 5.424 23.242 11.572 46.854 11.572 23.611 0 35.958-6.148 46.853-11.572 9.456-4.708 16.925-8.428 33.48-8.428s24.023 3.719 33.479 8.428c10.894 5.424 23.241 11.572 46.852 11.572s35.958-6.148 46.852-11.572c8.293-4.129 15.06-7.496 27.764-8.263 1.782-.107 3.679-.165 5.716-.165 9.026 0 15.344 1.111 20.762 2.88 4.52 1.475 8.417 3.407 12.717 5.548 10.894 5.424 23.241 11.572 46.852 11.572 8.284 0 15-6.716 15-15s-6.718-15.002-15.002-15.002zm-379.677-148.67 134.885-35.244c2.486-.649 5.098-.649 7.584 0l134.885 35.244c8.015 2.094 12.815 10.29 10.721 18.305-1.762 6.744-7.844 11.212-14.502 11.212-1.255 0-2.531-.159-3.802-.491l-131.094-34.253-131.093 34.253c-8.015 2.094-16.211-2.706-18.305-10.721s2.706-16.211 10.721-18.305z"/>
  </g>
  <g transform="matrix(0.037444, 0, 0, 0.037444, 369.582306, 64.899391)">
    <g>
      <path d="M1.819,396.259c-4.06,7.729-1.097,17.28,6.629,21.337c7.718,4.073,17.275,1.092,21.337-6.632 c0.15-0.284,29.592-28.584,176.287-28.584c158.87,0,202.337,39.903,202.525,40.07c3.107,3.23,7.251,4.855,11.4,4.855 c3.936,0,7.876-1.458,10.942-4.398c6.297-6.053,6.5-16.046,0.468-22.343c-2.514-2.615-16.377-15.625-52.496-27.705 c3.26-3.275,5.275-7.795,5.275-12.786v-85.255c0,0,6.439,0,14.371,0c7.937,0,9.282-6.332,3.001-14.147l-74.981-93.36 c-6.261-7.815-16.366-7.76-22.551,0.124l-3.352,4.275c6.835,5.467,9.653,14.584,6.962,22.966 c-2.768,8.627-10.705,14.528-19.759,14.7l-1.519,0.033l45.52,49.84c5.651,6.201,7.114,15.153,3.732,22.826 c-3.393,7.668-10.999,12.629-19.373,12.629h-54.867v57.782c-2.986-0.188-5.977-0.381-9.074-0.538v-66.248h63.941 c4.794,0,9.13-2.828,11.07-7.215c1.935-4.393,1.102-9.501-2.144-13.041l-59.021-64.655l21.561-0.401 c5.175-0.104,9.715-3.479,11.288-8.399c1.585-4.931-0.137-10.318-4.29-13.398l-26.056-19.388h2.712c0.021,0,0.046,0,0.061,0 c6.449,0.081,12.162-5.396,12.162-12.093c0-3.177-1.219-6.068-3.225-8.224l-30.361-42.559h2.981c0.02,0,0.035,0,0.061,0 c6.642-0.229,12.156-5.403,12.156-12.096c0-3.293-1.314-6.279-3.447-8.467l-47.37-62.467c-2.323-3.072-5.736-5.007-9.836-4.786 c-3.857,0.063-7.45,1.96-9.679,5.111l-43.701,61.778c-2.615,3.689-2.94,8.531-0.871,12.545c1.818,3.507,5.208,5.878,9.054,6.414 l-32.39,44.935c-2.252,3.121-2.75,7.056-1.627,10.659c5.57,1.074,10.745,4.03,14.812,8.516l3.176,3.808l33.33,41.498l6.177-8.231 c2.75-3.659,3.184-8.572,1.138-12.665c-2.044-4.101-6.233-6.69-10.813-6.69h-9.859l19-21.899c3.103-3.58,3.832-8.643,1.864-12.949 c-1.968-4.311-6.264-7.071-11.004-7.071h-12.743L192.7,89.463c2.661-3.682,3.023-8.546,0.954-12.583 c-1.84-3.603-5.347-6.012-9.305-6.495l20.721-29.292l23.544,31.055h-2.118c-4.534,0-8.683,2.526-10.752,6.556 c-2.077,4.029-1.721,8.874,0.909,12.562l31.211,43.757h-15.747c-5.209,0-9.841,3.341-11.476,8.294 c-1.643,4.954,0.079,10.397,4.261,13.518l26.953,20.051l-12.902,0.244c-4.754,0.089-9.014,2.948-10.888,7.317 c-1.868,4.367-1.025,9.425,2.174,12.939l58.563,64.149h-48.616c-6.683,0-12.096,5.419-12.096,12.096v77.465 c-5.926-0.143-11.992-0.229-18.248-0.254v-64.587c-1.856,0.487-3.832,0.772-5.949,0.772h-2.275v63.814 c-3.026,0.01-6.053,0.025-8.99,0.056V274.86c0,0,6.431,0,14.371,0c7.929,0,9.272-6.332,3.001-14.143l-74.986-93.399 c-6.274-7.823-16.376-7.756-22.556,0.127l-73.06,93.11c-6.178,7.881-4.771,14.274,3.168,14.274H56.93v85.244 c0,1.792,0.34,3.488,0.82,5.118C16.781,376.074,5.043,390.14,1.819,396.259z M130.297,275.834h21.858v32.113h-21.858V275.834z M130.297,322.237h21.858v29.925c-7.678,0.427-14.937,0.935-21.858,1.508V322.237z M94.162,275.834h21.861v32.113H94.162V275.834z M94.162,322.237h21.861v32.113H94.162V322.237z"/>
    </g>
  </g>
  <g transform="matrix(0.037444, 0, 0, 0.037444, 68.088356, -167.344971)"/>
  <g transform="matrix(0.037444, 0, 0, 0.037444, 68.088356, -167.344971)"/>
  <g transform="matrix(0.037444, 0, 0, 0.037444, 68.088356, -167.344971)"/>
  <g transform="matrix(0.037444, 0, 0, 0.037444, 68.088356, -167.344971)"/>
  <g transform="matrix(0.037444, 0, 0, 0.037444, 68.088356, -167.344971)"/>
  <g transform="matrix(0.037444, 0, 0, 0.037444, 68.088356, -167.344971)"/>
  <g transform="matrix(0.037444, 0, 0, 0.037444, 68.088356, -167.344971)"/>
  <g transform="matrix(0.037444, 0, 0, 0.037444, 68.088356, -167.344971)"/>
  <g transform="matrix(0.037444, 0, 0, 0.037444, 68.088356, -167.344971)"/>
  <g transform="matrix(0.037444, 0, 0, 0.037444, 68.088356, -167.344971)"/>
  <g transform="matrix(0.037444, 0, 0, 0.037444, 68.088356, -167.344971)"/>
  <g transform="matrix(0.037444, 0, 0, 0.037444, 68.088356, -167.344971)"/>
  <g transform="matrix(0.037444, 0, 0, 0.037444, 68.088356, -167.344971)"/>
  <g transform="matrix(0.037444, 0, 0, 0.037444, 68.088356, -167.344971)"/>
  <g transform="matrix(0.037444, 0, 0, 0.037444, 68.088356, -167.344971)"/>
</svg>